          <svg width="189" height="70" viewBox="0 0 189 70" fill="none" xmlns="http://www.w3.org/2000/svg">
<path fillRule="evenodd" clipRule="evenodd" d="M156.806 23.0221C161.438 17.4643 161.092 9.27559 155.782 4.1137C150.795 -0.734684 143.094 -1.29492 137.478 2.42006C131.861 -1.29492 124.161 -0.734684 119.173 4.1137C113.863 9.27559 113.517 17.4642 118.15 23.0221C118.244 23.1855 118.361 23.3367 118.498 23.4705L136.05 40.5324C136.845 41.3059 138.11 41.3059 138.906 40.5324L156.457 23.4705C156.595 23.3367 156.712 23.1855 156.806 23.0221ZM145.682 10.2781C147.948 10.2781 149.785 12.1188 149.785 14.3893H153.887C153.887 9.84818 150.214 6.16683 145.682 6.16683V10.2781Z" fill="white"/>
<path d="M8.17357 70C6.83138 70 5.42467 69.7543 3.95343 69.2628C2.48218 68.7713 1.25615 67.9435 0.27532 66.7795C0.06883 66.5208 -0.0215094 66.2492 0.00430189 65.9646C0.0559243 65.6542 0.223698 65.3955 0.507622 65.1886C0.765734 65.0075 1.03675 64.9428 1.32068 64.9946C1.63041 65.0463 1.87562 65.1886 2.0563 65.4214C2.80482 66.3009 3.70822 66.9217 4.76648 67.2839C5.85055 67.6202 7.02497 67.7883 8.28972 67.7883C10.4579 67.7883 11.9936 67.4003 12.897 66.6243C13.8004 65.8482 14.2521 64.9428 14.2521 63.9081C14.2521 62.8993 13.7617 62.0715 12.7809 61.4248C11.8259 60.7523 10.3417 60.2737 8.32844 59.9892C5.74731 59.627 3.83728 58.9286 2.59833 57.8939C1.35939 56.8591 0.739923 55.6563 0.739923 54.2853C0.739923 52.9919 1.06256 51.9055 1.70785 51.026C2.35313 50.1206 3.23071 49.448 4.3406 49.0083C5.47629 48.5426 6.76685 48.3098 8.21229 48.3098C9.96745 48.3098 11.4516 48.6332 12.6647 49.2799C13.8779 49.9007 14.8587 50.7414 15.6072 51.802C15.8137 52.0607 15.8782 52.3452 15.8008 52.6556C15.7492 52.9402 15.5556 53.173 15.22 53.3541C14.9619 53.4834 14.6909 53.5222 14.407 53.4705C14.1231 53.4187 13.8779 53.2635 13.6714 53.0048C13.0261 52.1771 12.2388 51.5562 11.3096 51.1424C10.4062 50.7026 9.34798 50.4827 8.13485 50.4827C6.50874 50.4827 5.24399 50.8319 4.3406 51.5304C3.4372 52.2288 2.9855 53.0695 2.9855 54.0525C2.9855 54.7251 3.16618 55.32 3.52754 55.8374C3.91471 56.3289 4.53418 56.7557 5.38595 57.1178C6.23772 57.4541 7.37342 57.7257 8.79304 57.9327C10.7289 58.1913 12.2517 58.6311 13.3616 59.2519C14.4973 59.8727 15.2975 60.597 15.7621 61.4248C16.2525 62.2267 16.4977 63.0933 16.4977 64.0245C16.4977 65.2403 16.1105 66.3009 15.3362 67.2063C14.5619 68.1116 13.5423 68.8101 12.2776 69.3016C11.0128 69.7672 9.64481 70 8.17357 70Z" fill="white"/>
<path d="M29.4188 69.7672C29.1607 69.7672 28.9284 69.7025 28.7219 69.5732C28.5412 69.4438 28.4122 69.2628 28.3347 69.03L22.0626 50.2111C21.9593 49.642 21.9852 49.2281 22.14 48.9695C22.2949 48.6849 22.5659 48.5426 22.9531 48.5426C23.1596 48.5426 23.3661 48.6073 23.5725 48.7366C23.779 48.8401 23.9339 49.0083 24.0372 49.2411L29.7673 66.5466H29.2639L34.5294 49.4739C34.6069 49.1893 34.7488 48.9695 34.9553 48.8143C35.1618 48.6332 35.407 48.5426 35.6909 48.5426C35.9749 48.5426 36.2072 48.6332 36.3878 48.8143C36.5943 48.9695 36.7492 49.1893 36.8525 49.4739L42.2728 66.5466H41.5759L47.306 49.2411C47.5125 48.7754 47.8739 48.5426 48.3901 48.5426C48.8547 48.5426 49.1644 48.7237 49.3193 49.0859C49.5 49.448 49.5 49.8231 49.3193 50.2111L43.0859 69.03C43.0084 69.2628 42.8665 69.4438 42.66 69.5732C42.4793 69.7025 42.247 69.7672 41.9631 69.7672C41.705 69.7672 41.4727 69.7025 41.2662 69.5732C41.0597 69.4438 40.9306 69.2628 40.879 69.03L35.3425 51.802H35.8458L30.5029 69.03C30.3996 69.2886 30.2448 69.4826 30.0383 69.612C29.8576 69.7155 29.6511 69.7672 29.4188 69.7672Z" fill="white"/>
<path d="M58.5968 69.7672C58.2612 69.7672 57.9773 69.6637 57.745 69.4568C57.5385 69.224 57.4353 68.9394 57.4353 68.6031V49.7067C57.4353 49.3445 57.5385 49.06 57.745 48.8531C57.9773 48.6461 58.2612 48.5426 58.5968 48.5426C58.9581 48.5426 59.2421 48.6461 59.4485 48.8531C59.655 49.06 59.7583 49.3445 59.7583 49.7067V68.6031C59.7583 68.9394 59.655 69.224 59.4485 69.4568C59.2421 69.6637 58.9581 69.7672 58.5968 69.7672ZM58.5581 44.0804C58.0676 44.0804 57.6418 43.9123 57.2804 43.576C56.9448 43.2139 56.7771 42.7741 56.7771 42.2568C56.7771 41.6618 56.9578 41.222 57.3191 40.9375C57.7063 40.6271 58.1322 40.4719 58.5968 40.4719C59.0356 40.4719 59.4356 40.6271 59.797 40.9375C60.1842 41.222 60.3777 41.6618 60.3777 42.2568C60.3777 42.7741 60.1971 43.2139 59.8357 43.576C59.5002 43.9123 59.0743 44.0804 58.5581 44.0804Z" fill="white"/>
<path d="M99.6318 69.7672C99.2962 69.7672 99.0123 69.6637 98.78 69.4568C98.5735 69.224 98.4703 68.9394 98.4703 68.6031V57.3894C98.4703 55.3976 97.9412 53.7679 96.8829 52.5004C95.8504 51.2329 94.4953 50.5991 92.8176 50.5991C91.0366 50.5991 89.5783 51.1941 88.4426 52.384C87.3327 53.5481 86.8036 55.126 86.8552 57.1178H84.5322C84.5838 55.3329 84.971 53.7809 85.6937 52.4616C86.4164 51.1424 87.3972 50.1206 88.6362 49.3963C89.8751 48.6461 91.2689 48.271 92.8176 48.271C94.3921 48.271 95.773 48.659 96.9603 49.4351C98.1476 50.2111 99.0769 51.2846 99.7479 52.6556C100.445 54.0266 100.793 55.6046 100.793 57.3894V68.6031C100.793 68.9394 100.69 69.224 100.484 69.4568C100.277 69.6637 99.9931 69.7672 99.6318 69.7672ZM71.6395 69.7672C71.3039 69.7672 71.02 69.6637 70.7877 69.4568C70.5812 69.224 70.478 68.9394 70.478 68.6031V49.7067C70.478 49.3445 70.5812 49.06 70.7877 48.8531C71.02 48.6461 71.3039 48.5426 71.6395 48.5426C72.0008 48.5426 72.2848 48.6461 72.4912 48.8531C72.6977 49.06 72.801 49.3445 72.801 49.7067V68.6031C72.801 68.9394 72.6977 69.224 72.4912 69.4568C72.2848 69.6637 72.0008 69.7672 71.6395 69.7672ZM85.6937 69.7672C85.3582 69.7672 85.0742 69.6637 84.8419 69.4568C84.6354 69.224 84.5322 68.9394 84.5322 68.6031V57.3894C84.5322 55.3976 84.0031 53.7679 82.9448 52.5004C81.9124 51.2329 80.5573 50.5991 78.8795 50.5991C77.0986 50.5991 75.6402 51.1682 74.5045 52.3064C73.3688 53.4446 72.801 54.9191 72.801 56.7298H70.8651C70.9426 55.0743 71.3297 53.6127 72.0266 52.3452C72.7494 51.0777 73.7044 50.0818 74.8917 49.3575C76.079 48.6332 77.4083 48.271 78.8795 48.271C80.454 48.271 81.8349 48.659 83.0222 49.4351C84.2096 50.2111 85.1388 51.2846 85.8099 52.6556C86.5068 54.0266 86.8552 55.6046 86.8552 57.3894V68.6031C86.8552 68.9394 86.752 69.224 86.5455 69.4568C86.339 69.6637 86.0551 69.7672 85.6937 69.7672Z" fill="white"/>
<path d="M139.5 69.7672C139.164 69.7672 138.88 69.6637 138.648 69.4568C138.441 69.224 138.338 68.9394 138.338 68.6031V57.3894C138.338 55.3976 137.809 53.7679 136.751 52.5004C135.718 51.2329 134.363 50.5991 132.685 50.5991C130.904 50.5991 129.446 51.1941 128.31 52.384C127.2 53.5481 126.671 55.126 126.723 57.1178H124.4C124.452 55.3329 124.839 53.7809 125.561 52.4616C126.284 51.1424 127.265 50.1206 128.504 49.3963C129.743 48.6461 131.137 48.271 132.685 48.271C134.26 48.271 135.641 48.659 136.828 49.4351C138.015 50.2111 138.945 51.2846 139.616 52.6556C140.313 54.0266 140.661 55.6046 140.661 57.3894V68.6031C140.661 68.9394 140.558 69.224 140.351 69.4568C140.145 69.6637 139.861 69.7672 139.5 69.7672ZM111.507 69.7672C111.172 69.7672 110.888 69.6637 110.655 69.4568C110.449 69.224 110.346 68.9394 110.346 68.6031V49.7067C110.346 49.3445 110.449 49.06 110.655 48.8531C110.888 48.6461 111.172 48.5426 111.507 48.5426C111.869 48.5426 112.153 48.6461 112.359 48.8531C112.565 49.06 112.669 49.3445 112.669 49.7067V68.6031C112.669 68.9394 112.565 69.224 112.359 69.4568C112.153 69.6637 111.869 69.7672 111.507 69.7672ZM125.561 69.7672C125.226 69.7672 124.942 69.6637 124.71 69.4568C124.503 69.224 124.4 68.9394 124.4 68.6031V57.3894C124.4 55.3976 123.871 53.7679 122.813 52.5004C121.78 51.2329 120.425 50.5991 118.747 50.5991C116.966 50.5991 115.508 51.1682 114.372 52.3064C113.237 53.4446 112.669 54.9191 112.669 56.7298H110.733C110.81 55.0743 111.197 53.6127 111.894 52.3452C112.617 51.0777 113.572 50.0818 114.759 49.3575C115.947 48.6332 117.276 48.271 118.747 48.271C120.322 48.271 121.703 48.659 122.89 49.4351C124.077 50.2111 125.007 51.2846 125.678 52.6556C126.375 54.0266 126.723 55.6046 126.723 57.3894V68.6031C126.723 68.9394 126.62 69.224 126.413 69.4568C126.207 69.6637 125.923 69.7672 125.561 69.7672Z" fill="white"/>
<path d="M159.583 69.9612C157.544 69.9612 155.724 69.5085 154.124 68.6031C152.549 67.6719 151.31 66.3914 150.407 64.7618C149.504 63.1321 149.052 61.2696 149.052 59.1743C149.052 57.0532 149.478 55.1907 150.33 53.5869C151.181 51.9572 152.356 50.6767 153.853 49.7455C155.35 48.8143 157.066 48.3486 159.002 48.3486C160.912 48.3486 162.603 48.8013 164.074 49.7067C165.545 50.5862 166.694 51.8149 167.52 53.3929C168.346 54.9449 168.759 56.7427 168.759 58.7863C168.759 59.1226 168.656 59.3942 168.449 59.6011C168.243 59.7822 167.972 59.8727 167.636 59.8727H150.601V57.8551H168.256L166.552 59.1355C166.604 57.4541 166.32 55.9667 165.7 54.6733C165.081 53.3799 164.19 52.3711 163.029 51.6468C161.893 50.8966 160.551 50.5215 159.002 50.5215C157.531 50.5215 156.215 50.8966 155.053 51.6468C153.917 52.3711 153.014 53.3799 152.343 54.6733C151.698 55.9667 151.375 57.467 151.375 59.1743C151.375 60.8557 151.723 62.3431 152.42 63.6365C153.117 64.9299 154.085 65.9517 155.324 66.7019C156.563 67.4262 157.983 67.7883 159.583 67.7883C160.59 67.7883 161.596 67.6202 162.603 67.2839C163.635 66.9217 164.448 66.4561 165.042 65.887C165.249 65.6801 165.494 65.5766 165.778 65.5766C166.087 65.5507 166.346 65.6283 166.552 65.8094C166.836 66.0422 166.978 66.3009 166.978 66.5854C167.004 66.87 166.888 67.1287 166.629 67.3615C165.804 68.1116 164.719 68.7325 163.377 69.224C162.061 69.7155 160.796 69.9612 159.583 69.9612Z" fill="white"/>
<path d="M177.547 56.8074C177.702 55.1519 178.153 53.6903 178.902 52.4228C179.65 51.1294 180.618 50.1206 181.806 49.3963C182.993 48.672 184.309 48.3098 185.755 48.3098C186.735 48.3098 187.497 48.4262 188.039 48.659C188.581 48.8919 188.787 49.3057 188.658 49.9007C188.581 50.2887 188.4 50.5215 188.116 50.5991C187.832 50.6767 187.484 50.6897 187.071 50.6379C186.684 50.5603 186.245 50.5215 185.755 50.5215C184.464 50.5215 183.315 50.7931 182.309 51.3364C181.302 51.8796 180.515 52.6298 179.947 53.5869C179.379 54.5181 179.095 55.5916 179.095 56.8074H177.547ZM177.934 69.7672C177.598 69.7672 177.314 69.6637 177.082 69.4568C176.876 69.224 176.772 68.9394 176.772 68.6031V49.7067C176.772 49.3445 176.876 49.06 177.082 48.8531C177.314 48.6461 177.598 48.5426 177.934 48.5426C178.295 48.5426 178.579 48.6461 178.786 48.8531C178.992 49.06 179.095 49.3445 179.095 49.7067V68.6031C179.095 68.9394 178.992 69.224 178.786 69.4568C178.579 69.6637 178.295 69.7672 177.934 69.7672Z" fill="white"/>
<path d="M29.9712 33.1383C29.6356 33.1383 29.3517 33.0349 29.1194 32.8279C28.9129 32.5951 28.8097 32.3106 28.8097 31.9743V20.7606C28.8097 18.7688 28.2806 17.1391 27.2223 15.8716C26.1898 14.604 24.8347 13.9703 23.157 13.9703C21.376 13.9703 19.9177 14.5652 18.782 15.7552C17.6721 16.9192 17.143 18.4972 17.1946 20.489H14.8716C14.9232 18.7041 15.3104 17.152 16.0331 15.8328C16.7558 14.5135 17.7366 13.4917 18.9756 12.7674C20.2145 12.0173 21.6083 11.6422 23.157 11.6422C24.7315 11.6422 26.1124 12.0302 27.2997 12.8062C28.487 13.5823 29.4162 14.6558 30.0873 16.0268C30.7842 17.3978 31.1327 18.9757 31.1327 20.7606V31.9743C31.1327 32.3106 31.0295 32.5951 30.823 32.8279C30.6165 33.0349 30.3325 33.1383 29.9712 33.1383ZM1.97886 33.1383C1.64332 33.1383 1.35939 33.0349 1.12709 32.8279C0.920602 32.5951 0.817357 32.3106 0.817357 31.9743V13.0778C0.817357 12.7157 0.920602 12.4312 1.12709 12.2242C1.35939 12.0173 1.64332 11.9138 1.97886 11.9138C2.34022 11.9138 2.62415 12.0173 2.83064 12.2242C3.03713 12.4312 3.14037 12.7157 3.14037 13.0778V31.9743C3.14037 32.3106 3.03713 32.5951 2.83064 32.8279C2.62415 33.0349 2.34022 33.1383 1.97886 33.1383ZM16.0331 33.1383C15.6976 33.1383 15.4136 33.0349 15.1813 32.8279C14.9748 32.5951 14.8716 32.3106 14.8716 31.9743V20.7606C14.8716 18.7688 14.3425 17.1391 13.2842 15.8716C12.2517 14.604 10.8967 13.9703 9.21893 13.9703C7.43795 13.9703 5.97961 14.5394 4.84391 15.6776C3.70822 16.8157 3.14037 18.2902 3.14037 20.101H1.20453C1.28196 18.4454 1.66913 16.9839 2.36603 15.7164C3.08875 14.4488 4.04377 13.4529 5.23108 12.7286C6.4184 12.0043 7.74768 11.6422 9.21893 11.6422C10.7934 11.6422 12.1743 12.0302 13.3616 12.8062C14.549 13.5823 15.4782 14.6558 16.1493 16.0268C16.8462 17.3978 17.1946 18.9757 17.1946 20.7606V31.9743C17.1946 32.3106 17.0914 32.5951 16.8849 32.8279C16.6784 33.0349 16.3945 33.1383 16.0331 33.1383Z" fill="white"/>
<path d="M42.621 33.1383C42.2854 33.1383 42.0015 33.0349 41.7692 32.8279C41.5627 32.5951 41.4595 32.3106 41.4595 31.9743V13.0778C41.4595 12.7157 41.5627 12.4312 41.7692 12.2242C42.0015 12.0173 42.2854 11.9138 42.621 11.9138C42.9823 11.9138 43.2662 12.0173 43.4727 12.2242C43.6792 12.4312 43.7825 12.7157 43.7825 13.0778V31.9743C43.7825 32.3106 43.6792 32.5951 43.4727 32.8279C43.2662 33.0349 42.9823 33.1383 42.621 33.1383ZM42.5822 7.45159C42.0918 7.45159 41.6659 7.28345 41.3046 6.94717C40.969 6.58502 40.8013 6.14527 40.8013 5.62791C40.8013 5.03295 40.9819 4.5932 41.3433 4.30865C41.7305 3.99824 42.1564 3.84303 42.621 3.84303C43.0598 3.84303 43.4598 3.99824 43.8212 4.30865C44.2084 4.5932 44.4019 5.03295 44.4019 5.62791C44.4019 6.14527 44.2213 6.58502 43.8599 6.94717C43.5244 7.28345 43.0985 7.45159 42.5822 7.45159Z" fill="white"/>
<path d="M72.8152 33.1383C72.4797 33.1383 72.1958 33.0349 71.9635 32.8279C71.757 32.5951 71.6537 32.3106 71.6537 31.9743V21.5366C71.6537 19.8293 71.3182 18.4196 70.6471 17.3072C70.0018 16.1949 69.1113 15.3671 67.9756 14.8239C66.8658 14.2548 65.601 13.9703 64.1814 13.9703C62.7876 13.9703 61.5357 14.2419 60.4258 14.7851C59.316 15.3025 58.4384 16.0268 57.7931 16.958C57.1478 17.8893 56.8252 18.9369 56.8252 20.101H54.8893C54.9926 18.4972 55.4701 17.0615 56.3218 15.794C57.1736 14.5006 58.2835 13.4917 59.6515 12.7674C61.0195 12.0173 62.5295 11.6422 64.1814 11.6422C66.0398 11.6422 67.7046 12.0302 69.1759 12.8062C70.6729 13.5564 71.8473 14.6687 72.6991 16.1432C73.5509 17.5918 73.9768 19.3896 73.9768 21.5366V31.9743C73.9768 32.3106 73.8606 32.5951 73.6283 32.8279C73.4218 33.0349 73.1508 33.1383 72.8152 33.1383ZM55.6637 33.1383C55.3281 33.1383 55.0442 33.0349 54.8119 32.8279C54.6054 32.5951 54.5022 32.3106 54.5022 31.9743V13.0778C54.5022 12.7157 54.6054 12.4312 54.8119 12.2242C55.0442 12.0173 55.3281 11.9138 55.6637 11.9138C56.025 11.9138 56.3089 12.0173 56.5154 12.2242C56.7219 12.4312 56.8252 12.7157 56.8252 13.0778V31.9743C56.8252 32.3106 56.7219 32.5951 56.5154 32.8279C56.3089 33.0349 56.025 33.1383 55.6637 33.1383Z" fill="white"/>
<path d="M85.4544 33.1383C85.1189 33.1383 84.835 33.0349 84.6027 32.8279C84.3962 32.5951 84.2929 32.3106 84.2929 31.9743V13.0778C84.2929 12.7157 84.3962 12.4312 84.6027 12.2242C84.835 12.0173 85.1189 11.9138 85.4544 11.9138C85.8158 11.9138 86.0997 12.0173 86.3062 12.2242C86.5127 12.4312 86.616 12.7157 86.616 13.0778V31.9743C86.616 32.3106 86.5127 32.5951 86.3062 32.8279C86.0997 33.0349 85.8158 33.1383 85.4544 33.1383ZM85.4157 7.45159C84.9253 7.45159 84.4994 7.28345 84.1381 6.94717C83.8025 6.58502 83.6348 6.14527 83.6348 5.62791C83.6348 5.03295 83.8154 4.5932 84.1768 4.30865C84.564 3.99824 84.9898 3.84303 85.4544 3.84303C85.8932 3.84303 86.2933 3.99824 86.6547 4.30865C87.0418 4.5932 87.2354 5.03295 87.2354 5.62791C87.2354 6.14527 87.0547 6.58502 86.6934 6.94717C86.3578 7.28345 85.932 7.45159 85.4157 7.45159Z" fill="white"/>
</svg>