<svg width="555" height="575" viewBox="0 0 555 575" fill="none" xmlns="http://www.w3.org/2000/svg">
<path d="M554.5 287.5C554.5 446.023 430.466 574.5 277.5 574.5C124.534 574.5 0.5 446.023 0.5 287.5C0.5 128.977 124.534 0.5 277.5 0.5C430.466 0.5 554.5 128.977 554.5 287.5Z" fill="#AE5EAB" stroke="#AE5EAB"/>
<path d="M315.638 430.5C301.837 430.5 290.607 419.271 290.607 405.469V324.408C290.607 320.947 293.414 318.141 296.875 318.141C300.336 318.141 303.143 320.947 303.143 324.408V405.469C303.143 412.36 308.748 417.965 315.638 417.965C322.529 417.965 328.134 412.36 328.134 405.469V399.215C328.134 395.753 330.94 392.947 334.402 392.947C337.863 392.947 340.669 395.753 340.669 399.215V405.469C340.669 419.271 329.44 430.5 315.638 430.5Z" fill="white" stroke="#AE5EAB"/>
<path d="M390.691 405.481C376.889 405.481 365.66 394.252 365.66 380.451V328.434C365.66 324.972 368.466 322.166 371.928 322.166C375.389 322.166 378.195 324.972 378.195 328.434V380.45C378.195 387.341 383.801 392.946 390.691 392.946C397.582 392.946 403.187 387.34 403.187 380.45V374.196C403.187 370.735 405.993 367.928 409.455 367.928C412.916 367.928 415.722 370.735 415.722 374.196V380.45C415.722 394.252 404.493 405.481 390.691 405.481Z" fill="white" stroke="#AE5EAB"/>
<path d="M240.584 430.5C226.782 430.5 215.553 419.271 215.553 405.469V399.215C215.553 395.754 218.359 392.947 221.82 392.947C225.282 392.947 228.088 395.754 228.088 399.215V405.469C228.088 412.36 233.693 417.965 240.584 417.965C247.474 417.965 253.08 412.36 253.08 405.469V324.471C253.08 321.009 255.886 318.203 259.347 318.203C262.809 318.203 265.615 321.009 265.615 324.471V405.469C265.615 419.271 254.385 430.5 240.584 430.5Z" fill="white" stroke="#AE5EAB"/>
<path d="M165.531 405.482C151.729 405.482 140.5 394.253 140.5 380.452V374.197C140.5 370.736 143.306 367.93 146.768 367.93C150.229 367.93 153.035 370.736 153.035 374.197V380.452C153.035 387.342 158.641 392.947 165.531 392.947C172.422 392.947 178.027 387.342 178.027 380.452V328.438C178.027 324.976 180.833 322.17 184.294 322.17C187.756 322.17 190.562 324.976 190.562 328.438V380.452C190.562 394.253 179.333 405.482 165.531 405.482Z" fill="white" stroke="#AE5EAB"/>
<path d="M409.969 229.484C409.969 205.033 395.466 176.939 371.174 154.332C344.612 129.613 311.562 116 278.112 116C244.663 116 211.612 129.613 185.051 154.332C160.758 176.939 146.256 205.033 146.256 229.484C146.256 250.802 157.285 266.799 179.051 277.146L163.894 315.037C162.014 319.737 162.586 325.046 165.424 329.238C168.262 333.43 172.979 335.932 178.041 335.932C188.641 335.932 194.269 331.715 198.791 328.325L198.791 328.325C202.589 325.479 205.332 323.423 211.423 323.423C217.514 323.423 220.258 325.479 224.056 328.325L224.057 328.326C228.578 331.714 234.207 335.932 244.806 335.932C255.401 335.932 261.025 331.714 265.544 328.325L265.546 328.324C269.34 325.479 272.081 323.423 278.165 323.423C284.241 323.423 286.979 325.478 290.768 328.323L290.769 328.324C295.286 331.713 300.907 335.932 311.495 335.932C322.089 335.932 327.712 331.714 332.231 328.324L332.231 328.324C336.023 325.479 338.763 323.423 344.844 323.423C350.922 323.423 353.661 325.478 357.451 328.322L357.452 328.323L357.454 328.324C361.972 331.714 367.594 335.932 378.183 335.932C383.245 335.932 387.962 333.43 390.8 329.238C393.638 325.046 394.21 319.738 392.33 315.037L377.174 277.146C398.94 266.799 409.969 250.802 409.969 229.484ZM379.592 321.649C379.361 321.99 378.93 322.397 378.183 322.397C372.106 322.397 369.367 320.342 365.576 317.498L365.576 317.497L365.574 317.496C361.056 314.106 355.434 309.888 344.844 309.888C334.251 309.888 328.627 314.107 324.109 317.497C320.317 320.341 317.576 322.397 311.495 322.397C305.421 322.397 302.683 320.342 298.894 317.498L298.891 317.496C294.374 314.106 288.754 309.888 278.165 309.888C267.57 309.888 261.945 314.106 257.425 317.496L257.425 317.496C253.631 320.341 250.89 322.397 244.806 322.397C238.715 322.397 235.971 320.341 232.173 317.495L232.171 317.494C227.65 314.105 222.022 309.888 211.423 309.888C200.824 309.888 195.196 314.105 190.675 317.494L190.673 317.495C186.875 320.341 184.132 322.397 178.041 322.397C177.295 322.397 176.863 321.99 176.632 321.649C176.401 321.308 176.183 320.756 176.461 320.063L191.639 282.119C212.33 288.864 240.693 292.151 278.112 292.151C315.531 292.151 343.894 288.865 364.586 282.119L379.763 320.063C380.041 320.757 379.823 321.309 379.592 321.649ZM366.828 267.107C339.476 278.293 307.248 278.616 278.112 278.616C256.202 278.616 234.038 278.454 212.505 273.928C194.477 270.14 171.554 263.107 163.057 244.989C160.786 240.146 159.792 234.815 159.792 229.484C159.791 190.168 210.6 129.535 278.112 129.535C345.624 129.535 396.434 190.168 396.434 229.484C396.434 248.9 383.502 260.288 366.828 267.107Z" fill="white"/>
<path d="M409.969 229.484C409.969 205.033 395.466 176.939 371.174 154.332C344.612 129.613 311.562 116 278.112 116C244.663 116 211.612 129.613 185.051 154.332C160.758 176.939 146.256 205.033 146.256 229.484C146.256 250.802 157.285 266.799 179.051 277.146L163.894 315.037C162.014 319.737 162.586 325.046 165.424 329.238C168.262 333.43 172.979 335.932 178.041 335.932C188.641 335.932 194.269 331.715 198.791 328.325L198.791 328.325C202.589 325.479 205.332 323.423 211.423 323.423C217.514 323.423 220.258 325.479 224.056 328.325L224.057 328.326C228.578 331.714 234.207 335.932 244.806 335.932C255.401 335.932 261.025 331.714 265.544 328.325L265.546 328.324C269.34 325.479 272.081 323.423 278.165 323.423C284.241 323.423 286.979 325.478 290.768 328.323L290.769 328.324C295.286 331.713 300.907 335.932 311.495 335.932C322.089 335.932 327.712 331.714 332.231 328.324L332.231 328.324C336.023 325.479 338.763 323.423 344.844 323.423C350.922 323.423 353.661 325.478 357.451 328.322L357.452 328.323L357.454 328.324C361.972 331.714 367.594 335.932 378.183 335.932C383.245 335.932 387.962 333.43 390.8 329.238C393.638 325.046 394.21 319.738 392.33 315.037L377.174 277.146C398.94 266.799 409.969 250.802 409.969 229.484ZM379.592 321.649C379.361 321.99 378.93 322.397 378.183 322.397C372.106 322.397 369.367 320.342 365.576 317.498L365.576 317.497L365.574 317.496C361.056 314.106 355.434 309.888 344.844 309.888C334.251 309.888 328.627 314.107 324.109 317.497C320.317 320.341 317.576 322.397 311.495 322.397C305.421 322.397 302.683 320.342 298.894 317.498L298.891 317.496C294.374 314.106 288.754 309.888 278.165 309.888C267.57 309.888 261.945 314.106 257.425 317.496L257.425 317.496C253.631 320.341 250.89 322.397 244.806 322.397C238.715 322.397 235.971 320.341 232.173 317.495L232.171 317.494C227.65 314.105 222.022 309.888 211.423 309.888C200.824 309.888 195.196 314.105 190.675 317.494L190.673 317.495C186.875 320.341 184.132 322.397 178.041 322.397C177.295 322.397 176.863 321.99 176.632 321.649C176.401 321.308 176.183 320.756 176.461 320.063L191.639 282.119C212.33 288.864 240.693 292.151 278.112 292.151C315.531 292.151 343.894 288.865 364.586 282.119L379.763 320.063C380.041 320.757 379.823 321.309 379.592 321.649ZM366.828 267.107C339.476 278.293 307.248 278.616 278.112 278.616C256.202 278.616 234.038 278.454 212.505 273.928C194.477 270.14 171.554 263.107 163.057 244.989C160.786 240.146 159.792 234.815 159.792 229.484C159.791 190.168 210.6 129.535 278.112 129.535C345.624 129.535 396.434 190.168 396.434 229.484C396.434 248.9 383.502 260.288 366.828 267.107Z" stroke="#AE5EAB"/>
<path d="M279.66 221.913C276.199 221.913 273.393 219.107 273.393 215.646V190.628C273.393 187.167 276.199 184.36 279.66 184.36C283.122 184.36 285.928 187.167 285.928 190.628V215.646C285.928 219.107 283.122 221.913 279.66 221.913Z" fill="white" stroke="#AE5EAB"/>
<path d="M307.172 239.423L307.172 239.423C304.403 237.346 303.841 233.418 305.918 230.649L305.918 230.649L324.682 205.631C326.759 202.862 330.687 202.3 333.456 204.377L333.456 204.377C336.225 206.454 336.787 210.382 334.709 213.152L334.709 213.152L315.946 238.17L315.946 238.17C314.715 239.812 312.834 240.677 310.927 240.677C309.618 240.677 308.3 240.27 307.172 239.423Z" fill="white" stroke="#AE5EAB"/>
<path d="M225.865 204.377L225.865 204.377C228.635 202.3 232.563 202.862 234.639 205.631L234.639 205.631L253.402 230.649C255.479 233.418 254.918 237.346 252.149 239.423C251.021 240.269 249.702 240.677 248.394 240.677C246.487 240.677 244.606 239.811 243.375 238.17L224.611 213.152C222.534 210.383 223.096 206.454 225.865 204.377Z" fill="white" stroke="#AE5EAB"/>
<circle cx="27.5" cy="27.5" r="22.5" transform="matrix(-1 0 0 1 543 274)" stroke="white" stroke-width="10"/>
<circle cx="27.5" cy="27.5" r="22.5" transform="matrix(-1 0 0 1 65 274)" stroke="white" stroke-width="10"/>
</svg>
